{"title":"Skiptrace 2016 720p HDRIP x264 AC3 TiTAN","uid":15741965,"size":3281311940,"categoryP":"video","categoryS":"hd___movies","magnet":"?xt=urn:btih:553a0eaac4a8361aeb0f6e835586f3a6662a8115&amp;dn=Skiptrace+2016+720p+HDRIP+x264+AC3+TiTAN++&amp;tr=udp%3A%2F%2Ftracker.leechers-paradise.org%3A6969&amp;tr=udp%3A%2F%2Fzer0day.ch%3A1337&amp;tr=udp%3A%2F%2Fopen.demonii.com%3A1337&amp;tr=udp%3A%2F%2Ftracker.coppersurfer.tk%3A6969&amp;tr=udp%3A%2F%2Fexodus.desync.com%3A6969","seeders":11,"leechers":2,"uploader":"makintos13","files":2,"time":1472925383,"description":"Skiptrace 2016 720p HDRIP x264 AC3 TiTAN  \r\n\r\n\r\nScreens:\r\n \nhttps://imgmak.com/aDv\r\n \nhttps://imgmak.com/aDy\r\n \nhttps://imgmak.com/aD6\r\n \nhttps://imgmak.com/aD9\r\n \nhttps://imgmak.com/aDM\r\n \nhttp://www.imdb.com/title/tt2238032/\r\n\r\nSource: 1080p FGT\r\n\r\nGeneral\r\n\r\nFormat                                   : Matroska\r\nFormat version                           : Version 2\r\nFile size                                : 3.06 GiB\r\nDuration                                 : 1h 47mn\r\nOverall bit rate mode                    : Variable\r\nOverall bit rate                         : 4 062 Kbps\r\n\r\nVideo\r\nID                                       : 1\r\nFormat                                   : AVC\r\nFormat/Info                              : Advanced Video Codec\r\nFormat profile                           :   \r\nFormat settings, CABAC                   : Yes\r\nFormat settings, ReFrames                : 3 frames\r\nCodec ID                                 : V_MPEG4/ISO/AVC\r\nDuration                                 : 1h 47mn\r\nBit rate mode                            : Variable\r\nBit rate                                 : 3 597 Kbps\r\nMaximum bit rate                         : 40.0 Mbps\r\nWidth                                    : 1 280 pixels\r\nHeight                                   : 528 pixels\r\nDisplay aspect ratio                     : 2.40:1\r\nFrame rate mode                          : Constant\r\nFrame rate                               : 23.976 fps\r\nColor space                              : YUV\r\nChroma subsampling                       : 4:2:0\r\nBit depth                                : 8 bits\r\nScan type                                : Progressive\r\nBits/(Pixel*Frame)                       : 0.222\r\nStream size                              : 2.71 GiB (89%)\r\nDefault                                  : Yes\r\nForced                                   : No\r\nColor primaries                          : BT.709\r\nTransfer characteristics                 : BT.709\r\nMatrix coefficients                      : BT.709\r\n\r\nAudio\r\nID                                       : 2\r\nFormat                                   : AC-3\r\nFormat/Info                              : Audio Coding 3\r\nMode extension                           : CM (complete main)\r\nFormat settings, Endianness              : Big\r\nCodec ID                                 : A_AC3\r\nDuration                                 : 1h 47mn\r\nBit rate mode                            : Constant\r\nBit rate                                 : 384 Kbps\r\nChannel(s)                               : 6 channels\r\nChannel positions                        : Front: L C R, Side: L R, LFE\r\nSampling rate                            : 48.0 KHz\r\nBit depth                                : 16 bits\r\nCompression mode                         : Lossy\r\nStream size                              : 296 MiB (9%)\r\nDefault                                  : Yes\r\nForced                                   : No","torrent":{"xt":"urn:btih:553a0eaac4a8361aeb0f6e835586f3a6662a8115","amp;dn":"Skiptrace+2016+720p+HDRIP+x264+AC3+TiTAN++","amp;tr":["udp%3A%2F%2Ftracker.leechers-paradise.org%3A6969","udp%3A%2F%2Fzer0day.ch%3A1337","udp%3A%2F%2Fopen.demonii.com%3A1337","udp%3A%2F%2Ftracker.coppersurfer.tk%3A6969","udp%3A%2F%2Fexodus.desync.com%3A6969"],"infoHash":"553a0eaac4a8361aeb0f6e835586f3a6662a8115","infoHashBuffer":{"type":"Buffer","data":[85,58,14,170,196,168,54,26,235,15,110,131,85,134,243,166,102,42,129,21]},"announce":[],"urlList":[]}}